<?xml version="1.0" encoding="UTF-8"?>
<svg width="24px" height="24px" viewBox="0 0 24 24" version="1.1" xmlns="http://www.w3.org/2000/svg" xmlns:xlink="http://www.w3.org/1999/xlink">
    <!-- Generator: Sketch 63.1 (92452) - https://sketch.com -->
    <title>icon_ysjk</title>
    <desc>Created with Sketch.</desc>
    <g id="页面-1" stroke="none" stroke-width="1" fill="none" fill-rule="evenodd">
        <g id="首页" transform="translate(-72.000000, -942.000000)" fill="#3693FF" fill-rule="nonzero">
            <g id="运输监控-2" transform="translate(72.000000, 942.000000)">
                <g id="运输监控" transform="translate(4.000000, 2.000000)">
                    <path d="M14.7612847,4.70510224 C14.3741561,3.79340278 13.8220968,2.9710407 13.1165606,2.26550444 C12.413315,1.56225887 11.5932436,1.00790895 10.6769628,0.620780285 C9.73319348,0.22219811 8.72757523,0.0183256173 7.69217785,0.0183256173 C6.65678048,0.0183256173 5.65116223,0.22219811 4.70739294,0.620780285 C3.79569348,1.00790895 2.9733314,1.55996817 2.26779514,2.26550444 C1.56454958,2.96875 1.01019965,3.78882137 0.623070988,4.70510224 C0.22219811,5.65116223 0.0206163194,6.65448978 0.0206163194,7.68988715 C0.0206163194,8.72528453 0.224488812,9.73090278 0.623070988,10.6746721 C1.01019965,11.5886622 1.56225887,12.4087336 2.26779514,13.1142699 C2.9710407,13.8175154 3.79111208,14.3718654 4.70739294,14.758994 C4.93188175,14.8529128 5.15866127,14.9376688 5.39002218,15.0109713 L4.33171779,17.6338252 L1.88524788,17.6338252 C1.51415413,17.6338252 1.21178144,17.9361979 1.21178144,18.3072917 C1.21178144,18.6783854 1.51415413,18.9807581 1.88524788,18.9807581 L13.5036892,18.9807581 C13.874783,18.9807581 14.1771557,18.6783854 14.1771557,18.3072917 C14.1771557,17.9361979 13.874783,17.6338252 13.5036892,17.6338252 L11.1740451,17.6338252 L10.1249035,14.9674479 C10.6128231,14.8048081 11.0824171,14.5940635 11.529104,14.3352141 C12.6721644,13.6732012 13.6342593,12.7202691 14.305435,11.5817901 C14.997227,10.4089506 15.3637394,9.06201775 15.3637394,7.69217785 C15.3637394,6.65448978 15.1621576,5.65116223 14.7612847,4.70510224 L14.7612847,4.70510224 Z M7.72195698,1.29653742 C8.25110918,1.29653742 8.68176119,1.72718943 8.68176119,2.25634163 C8.68176119,2.78549383 8.25110918,3.21614583 7.72195698,3.21614583 C7.19280478,3.21614583 6.76214368,2.78549383 6.76214368,2.25634163 C6.75986208,1.72718943 7.19051408,1.29653742 7.72195698,1.29653742 Z M7.69675926,13.313561 C5.32359182,13.313561 3.3925299,11.382499 3.3925299,9.0093316 C3.3925299,6.63616416 5.32359182,4.70510224 7.69675926,4.70510224 C10.0699267,4.70510224 12.0009886,6.63616416 12.0009886,9.0093316 C12.0009886,11.382499 10.0699267,13.313561 7.69675926,13.313561 Z" id="形状"></path>
                    <path d="M7.69446856,6.24216339 C6.16886092,6.24216339 4.92730035,7.48372396 4.92730035,9.0093316 C4.92730035,10.5349392 6.16886092,11.7764998 7.69446856,11.7764998 C9.2200762,11.7764998 10.4616368,10.5349392 10.4616368,9.0093316 C10.4616368,7.48372396 9.2200762,6.24216339 7.69446856,6.24216339 L7.69446856,6.24216339 Z" id="路径"></path>
                </g>
            </g>
        </g>
    </g>
</svg>