<?xml version="1.0" encoding="UTF-8"?>
<svg width="24px" height="24px" viewBox="0 0 24 24" version="1.1" xmlns="http://www.w3.org/2000/svg" xmlns:xlink="http://www.w3.org/1999/xlink">
    <!-- Generator: Sketch 63.1 (92452) - https://sketch.com -->
    <title>icon_ddgh</title>
    <desc>Created with Sketch.</desc>
    <g id="页面-1" stroke="none" stroke-width="1" fill="none" fill-rule="evenodd">
        <g id="首页" transform="translate(-71.000000, -92.000000)" fill="#3693FF" fill-rule="nonzero">
            <g id="调度-(9)" transform="translate(72.000000, 92.000000)">
                <path d="M19.08375,2 L4.91625,2 C4.08375,2 3.375,2.33375 2.83375,2.875 C2.33375,3.41625 2,4.125 2,4.91625 L2,19.08375 C2,20.70875 3.29125,22 4.91625,22 L19.08375,22 C20.70875,22 22,20.70875 22,19.08375 L22,4.91625 C22,3.29125 20.70875,2 19.08375,2 Z M17.83375,15.20875 C17.83375,15.66625 17.45875,16 17.04125,16 L11.625,16 C11.29125,16.75 10.58375,17.25 9.70875,17.25 C8.83375,17.25 8.125,16.75 7.79125,16 L6.95875,16 C6.74868096,16.0003319 6.54710215,15.9171148 6.39844353,15.7686906 C6.2497849,15.6202665 6.16625,15.4188193 6.16625,15.20875 L6.16625,15.16625 C6.16625,14.70875 6.54125,14.375 6.95875,14.375 L7.79125,14.375 C8.125,13.625 8.83375,13.125 9.70875,13.125 C10.58375,13.125 11.29125,13.625 11.625,14.375 L17.04125,14.375 C17.5,14.375 17.83375,14.75 17.83375,15.16625 L17.83375,15.20875 L17.83375,15.20875 Z M17.83375,8.95875 C17.83375,9.41625 17.45875,9.75 17.04125,9.75 L16.20875,9.75 C15.875,10.5 15.16625,11 14.29125,11 C13.41625,11 12.70875,10.5 12.375,9.75 L6.95875,9.75 C6.74868096,9.75033186 6.54710215,9.66711479 6.39844353,9.51869065 C6.2497849,9.3702665 6.16625,9.1688193 6.16625,8.95875 L6.16625,8.91625 C6.16625,8.45875 6.54125,8.125 6.95875,8.125 L12.375,8.125 C12.70875,7.375 13.41625,6.875 14.29125,6.875 C15.16625,6.875 15.875,7.375 16.20875,8.125 L17.04125,8.125 C17.5,8.125 17.83375,8.5 17.83375,8.91625 L17.83375,8.95875 L17.83375,8.95875 Z" id="形状"></path>
            </g>
        </g>
    </g>
</svg>