<?xml version="1.0" standalone="no"?>
<!DOCTYPE svg PUBLIC "-//W3C//DTD SVG 20010904//EN"
 "http://www.w3.org/TR/2001/REC-SVG-20010904/DTD/svg10.dtd">
<svg version="1.0" xmlns="http://www.w3.org/2000/svg"
 width="20.000000pt" height="19.460154241645245pt" viewBox="0 0 778.000000 757.000000"
 preserveAspectRatio="xMidYMid meet">
<metadata>
Created by potrace 1.16, written by Peter Selinger 2001-2019
</metadata>
<g transform="translate(0.000000,757.000000) scale(0.100000,-0.100000)"
fill="rgb(246, 24, 35)" stroke="none">
<path d="M3740 7297 c-592 -209 -2784 -1306 -3320 -1662 -101 -67 -105 -72
-117 -118 -39 -159 -56 -878 -50 -2134 6 -1185 12 -1306 77 -1438 21 -41 45
-71 78 -96 407 -307 2687 -1443 3316 -1651 125 -42 127 -42 189 -29 216 45
1223 502 2223 1010 831 423 1316 700 1351 772 17 35 31 162 45 429 9 164 13
578 13 1370 0 792 -4 1206 -13 1370 -14 266 -28 394 -45 429 -38 79 -615 403
-1557 874 -814 408 -1433 695 -1815 842 -195 75 -241 79 -375 32z m415 -980
c567 -251 1905 -931 1905 -967 0 -21 -441 -252 -1455 -761 l-700 -352 -835
418 c-992 496 -1330 673 -1330 695 0 37 1689 894 2049 1040 l93 38 52 -18 c28
-9 128 -51 221 -93z m1120 -2364 l1375 687 0 -313 0 -313 -1375 -687 -1375
-688 -1375 688 -1375 688 0 312 0 313 1375 -687 1375 -688 1375 688z m0 -1600
l1375 687 -2 -312 -3 -313 -430 -217 c-236 -120 -854 -432 -1373 -694 l-942
-475 -1243 627 c-683 344 -1302 658 -1374 696 l-133 70 0 309 0 309 1375 -687
1375 -688 1375 688z"/>
</g>
</svg>
