<?xml version="1.0" encoding="UTF-8"?>
<svg width="24px" height="24px" viewBox="0 0 24 24" version="1.1" xmlns="http://www.w3.org/2000/svg" xmlns:xlink="http://www.w3.org/1999/xlink">
    <!-- Generator: Sketch 63.1 (92452) - https://sketch.com -->
    <title>icon_yyfx</title>
    <desc>Created with Sketch.</desc>
    <g id="页面-1" stroke="none" stroke-width="1" fill="none" fill-rule="evenodd">
        <g id="首页" transform="translate(-72.000000, -1132.000000)" fill="#3693FF" fill-rule="nonzero">
            <g id="分析-(1)-2" transform="translate(72.000000, 1132.000000)">
                <g id="分析-(1)" transform="translate(3.000000, 3.000000)">
                    <path d="M4.37336719,8 C4.57961133,8 4.82776172,7.85109375 4.92479297,7.66908984 L7.77083203,2.33089453 C7.86786328,2.1489082 7.99363477,2.16225 8.05028906,2.36056641 L10.3371152,10.3644668 C10.3937695,10.5627832 10.5218086,10.577373 10.6216348,10.3968809 L11.7657773,8.32814648 C11.8655859,8.14767187 12.1160215,8 12.3222656,8 L17.8921934,8 C17.3947324,3.50006836 13.5798047,0 8.94726562,0 C4.31472656,0 0.499798828,3.50006836 0.00233789063,8 L4.37336719,8 Z" id="路径"></path>
                    <path d="M13.5211641,10.000002 C13.3149199,10.000002 13.0667695,10.1489062 12.9697383,10.3309102 L11.4258516,13.2266953 L11.0730059,13.8885117 L10.1236816,15.6690879 C10.0266504,15.8510918 9.90089648,15.8377324 9.84422461,15.6394336 L7.53848438,7.56924609 C7.4818125,7.37092969 7.35605859,7.35758789 7.25902734,7.5395918 L6.12367383,9.66909375 C6.02664258,9.85108008 5.77850977,10.000002 5.57226563,10.000002 L0.00233789063,10.000002 C0.499798828,14.4999316 4.31472656,18 8.94726563,18 C13.5798047,18 17.3947324,14.4999316 17.8921934,10.000002 L13.5211641,10.000002 Z" id="路径"></path>
                </g>
            </g>
        </g>
    </g>
</svg>